<svg width="340" height="125" style="opacity: 0.2;" fill="none" xmlns="http://www.w3.org/2000/svg"><g clip-path="url(#a)"><path d="M340 0v33.217c-51.427 21.392-108.387 33.192-167.459 33.192-8.382 0-10.115.261-18.378-.214l25.548-25.69c-46.513 0-96.587-6.458-138.636-20.015L58.954 2.517A312.068 312.068 0 0 1 49.718 0h158.057l-13.961 14.032C217.059 11.587 241.182 6.743 264.616 0H340Z" fill="url(#b)"/><path d="M340 83.497v40.791H69.4a325.491 325.491 0 0 1-5.08-1.591l17.878-17.974C53.92 97.411 25.571 86.323 0 73.478V40c37.229 14.816 80.845 22.295 122.941 23.743l-18.709 18.828c26.212 5.675 51.498 8.5 79.396 8.5 24.147 0 40.577-.76 63.489-5.033l-30.035 30.201c41.1-4.321 84.882-16.098 122.918-32.742Z" fill="url(#c)"/></g><defs><linearGradient id="b" x1="320.156" y1="46.07" x2="117.704" y2="10.135" gradientUnits="userSpaceOnUse"><stop stop-color="#FF2882"/><stop offset="1" stop-color="#640A4C"/></linearGradient><linearGradient id="c" x1="319.313" y1="124.233" x2="80.722" y2="81.885" gradientUnits="userSpaceOnUse"><stop stop-color="#FF2882"/><stop offset="1" stop-color="#640A4C"/></linearGradient><clipPath id="a"><path fill="#fff" d="M0 0h340v124.413H0z"/></clipPath></defs></svg>
