<svg xmlns="http://www.w3.org/2000/svg" width="60" height="57" fill="none" viewBox="0 0 60 57"><g clip-path="url(#a)"><path fill="#000" d="M39.923 16.795a.22.22 0 0 1-.174.123c-1.718.2-3.544-.04-4.248-.15-1.174-1.174-2.446-2.48-3.384-3.62a.334.334 0 0 1-.012-.408c1.337-1.864 2.561-3.343 3.08-3.93 1.478-.322 2.953-.607 3.95-.648a.22.22 0 0 1 .19.093c1.284 1.786 2.203 3.497 2.497 4.122a52 52 0 0 1-1.899 4.418m-1.639 3.021c-.947 1.586-1.666 2.542-1.897 2.832-.313.442-1.11 1.593-2.35 2.757a.45.45 0 0 1-.29.122c-1.553.064-2.995-.044-3.557-.167a31 31 0 0 1-2.892-1.418.34.34 0 0 1-.173-.316c.068-1.015.39-2.46.675-3.988.704-1.237 1.434-2.647 2.19-3.806a.34.34 0 0 1 .37-.14c2.267.619 4.233 1.088 5.032 1.268a19.7 19.7 0 0 0 2.865 2.711.11.11 0 0 1 .027.145M24.573 22.02a.34.34 0 0 1-.372-.011c-.987-.699-2.164-1.591-3.145-2.508-.578-.988-1.024-2.254-1.336-3.33a.22.22 0 0 1 .041-.201c1.1-1.353 2.421-2.424 2.973-2.831 1.246.537 2.676 1.011 3.926 1.427a.34.34 0 0 1 .23.291c.175 2.225.583 4.024.692 4.712-.467.499-1.687 1.63-3.01 2.45m-5.482-8.754c-.163-1.05-.27-2.154-.282-2.659-.027-1.166.158-2.2.373-3.156a.8.8 0 0 1 .236-.407c.625-.572 1.755-1.583 2.469-2.04.672-.431 2.541-1.035 3.312-1.259a.336.336 0 0 1 .385.158q.139.245.293.484c.607.944 1.275 1.758 1.557 2.11-.373 1.482-.532 3.144-.604 4.546a.34.34 0 0 1-.214.294c-1.95.761-3.424 1.356-3.919 1.585-1.34.056-2.616.285-3.477.435a.11.11 0 0 1-.129-.091m9.83-10.18a.34.34 0 0 1 .24-.15c2.005-.265 3.84-.304 4.544-.285 1.284.853 2.538 1.98 3.538 3.047.07.075.081.188.026.274-.714 1.117-1.753 2.19-2.21 2.656-1.691.4-3.485.983-4.94 1.461a.34.34 0 0 1-.383-.129c-1.105-1.605-1.807-2.98-2.082-3.49.299-1.338.717-2.53 1.268-3.384M42.318 16.26a.056.056 0 0 1-.079-.049c-.084-1.647-.236-3.247-.315-3.833.006-1.422-.23-2.898-.465-3.987a.056.056 0 0 1 .066-.066c1.346.274 1.778.778 1.778.778a10 10 0 0 0-2.855-3.71c-.954-1.998-2.053-2.922-2.053-2.922.09.442.028.942-.13 1.457a.056.056 0 0 1-.078.034c-1.829-.894-3.717-1.303-4.447-1.405-1.092-.53-2.284-.881-3.254-1.147a.033.033 0 0 1-.012-.058C31.76.283 32.943.01 32.943.01c-2.095-.083-3.899.296-5.407.875-2.253-.18-3.689.211-3.689.211s.623.744.865 1.159c.029.05.013.114-.034.147a16.6 16.6 0 0 0-2.835 2.51c-.447.06-1.22.167-1.896.334a.034.034 0 0 1-.04-.046c.677-1.61 1.415-2.502 1.415-2.502s-4.349 3.086-5.173 8.63c0 0 .358-.982 1.569-2.472a.034.034 0 0 1 .057.008c.343.759.735 1.433.932 1.742-.666 1.071-1.125 2.24-1.408 3.195a.11.11 0 0 1-.068.072c-1.007.383-1.264.747-1.264.747.157.534.464 1.055.853 1.546.034.043.05.096.048.15-.107 2.366.657 3.924.657 3.924.173-.826.51-1.63.938-2.383a.056.056 0 0 1 .083-.016c.994.789 2.024 1.479 2.433 1.724.21.537.814 1.933 1.62 3.364a.056.056 0 0 1-.03.08c-.965.352-1.955.51-2.863.29 0 0 1.095 1.363 4.473 1.944.938 1.107 2.078 2.023 3.41 2.342 0 0-.39-.429-.487-2.027a.056.056 0 0 1 .057-.06c.834.013 1.966.031 3.001-.044.367.29 1.169.924 1.95 1.328.039.02.041.075.004.098-1.374.83-2.287.902-2.287.902 6.22.132 9.956-3.92 9.956-3.92-1.025.672-2.208 1.091-3.386 1.34a.056.056 0 0 1-.066-.066c.219-1.057.157-2.079.142-2.439A11.2 11.2 0 0 0 40.19 21a.06.06 0 0 1 .064 0c.397.276.737.585 1.076 1.1 0 0 .645-.912.867-3.025 1.598-2.084 1.836-4.217 1.836-4.217-.401.626-1.007 1.077-1.716 1.4M30 36.834c-2.668 0-5.09 1.192-6.566 2.953l.468.578c1.342-1.666 3.623-2.81 6.098-2.81s4.757 1.144 6.098 2.81l.468-.578C35.09 38.027 32.67 36.835 30 36.835m-6.242.374c-.175.143-.38.212-.56.191-.228-.026-.366-.12-.593-.4l-1.31-1.605-.705.573 1.425 1.75c.303.37.649.568 1.056.605q.072.007.142.008c.395.003.761-.136 1.116-.422.396-.323.613-.697.664-1.145.046-.405-.078-.783-.38-1.154l-1.425-1.75-.705.573 1.308 1.606c.228.279.29.434.27.662-.016.18-.126.366-.303.508m4.826-5.057-2.285.463a.36.36 0 0 0-.239.151.36.36 0 0 0-.046.278l.455 2.24q.112.547.487.78.247.15.589.15.174 0 .37-.04l1.429-.288-.172-.846-1.39.282c-.284.057-.377.026-.442-.293l-.049-.24 1.608-.326-.17-.836-1.608.326-.122-.6 1.757-.356zm4.445 1.222 1.37.354.216-.833-1.409-.364c-.771-.2-1.3.088-1.488.812l-.575 2.214a.36.36 0 0 0 .031.28q.074.121.23.163l.523.135.37-1.432 1.586.41.214-.824-1.586-.41.062-.237c.081-.314.175-.34.456-.268m7.107 2.023.483-.596q-.36-.36-.75-.697c-2.706-2.33-6.21-3.614-9.869-3.614s-7.163 1.284-9.869 3.614q-.39.337-.75.697l.483.596q.367-.37.766-.716c2.568-2.21 5.895-3.429 9.37-3.429s6.803 1.218 9.37 3.43q.4.345.766.715m-3.691 2.956.157-.54-.675-.503.543-.388.315.236.357-1.203-2.074 1.338-.85-.48 3.253-2.1c.126-.081.297-.153.514.014l.14.107c.219.168.187.361.145.492l-1.08 3.708zm-15.31 17.563h-2.4v-1.839h1.43l.585.498h.02v-1.876h-.02l-.585.498h-1.43v-1.6h2.313l.672.719h.019l-.077-1.59h-4.933v.02l.451.545v4.941l-.451.546v.019h5.144l.125-1.829h-.02zm.906-12.22 1.698 4.328h.95l1.575-4.376.268 3.811-.595.546v.02h2.581v-.02l-.498-.546-.365-4.941.393-.546v-.019h-2.15l-1.458 4.05-1.574-4.05h-2.178v.02l.441.545-.26 4.941-.527.546v.02h2.12v-.02l-.527-.546zm-7.144 12.21h-2.082V51.29l.566-.546v-.02H10.81v.02l.451.546v4.941l-.451.536v.029h4.827l.23-1.905h-.019zm-4.649-7.901v.02h2.448v-.02l-.452-.546v-4.941l.452-.546v-.019h-2.448v.02l.442.545v1.838H8.51v-1.838l.442-.546v-.019H6.506v.02l.45.545v4.941l-.45.546v.02h2.447v-.02l-.442-.546v-2.135h2.179v2.135zm38.224 7.91h-2.4v-1.838h1.43l.585.498h.02v-1.876h-.02l-.585.498h-1.43v-1.6h2.313l.672.719h.019l-.077-1.59h-4.933v.02l.452.545v4.941l-.452.546v.019h5.145l.124-1.829h-.02zm-22.025-1.54-.72-2.413-.844 2.412zm2.15 1.857.499.546v.019h-2.6v-.02l.499-.545-.279-.948h-2.15l-.326.948.47.546v.019h-2.034v-.02l.48-.545 1.871-4.941-.355-.546v-.02h2.063zm-24.93-9.012c-1.249 0-2.045-1.264-2.045-2.356 0-1.34.729-2.212 1.775-2.212.278 0 .547.029.787.095l.94 1.16h.02l-.067-1.916c-.27-.105-.854-.249-1.574-.249C1.277 41.741 0 43.254 0 44.997c0 1.724 1.228 3.236 3.34 3.236.566 0 1.4-.19 1.977-.622l.086-1.005h-.02c-.488.383-1.19.613-1.717.613m34.945.785-.442-.546v-4.941l.442-.546v-.019h-2.447v.02l.45.545v4.941l-.45.546v.02h2.447zm-5.369 5.948.605.546v1.14c-.192.22-.528.401-.979.401-1.075 0-1.641-1.311-1.641-2.413 0-1.197.605-2.202 1.852-2.202.346 0 .71.029 1.008.134l.96 1.034h.019l-.058-1.666c-.556-.287-1.228-.411-1.91-.411-2.044 0-3.493 1.254-3.493 3.322 0 1.733 1.113 3.17 2.85 3.17.759 0 1.45-.173 2.092-.642l.758.642h.02v-2.509l.48-.546v-.02h-2.562zm-1.588-8.878c.192.057.413.086.643.086.845 0 1.21-.46 1.21-1.14 0-.804-.47-1.187-1.345-1.187h-.508zm-1.554 2.384v-4.941l-.452-.546v-.019h2.88c1.746 0 2.543.794 2.543 2.002 0 1.254-.95 2.03-2.246 2.03-.422 0-.854-.03-1.17-.106v1.58l.632.546v.02H29.65v-.02zm14.499-2.03c0-1.053-.394-2.73-1.737-2.73-1.075 0-1.382 1.073-1.382 1.8 0 1.064.441 2.778 1.737 2.778.93 0 1.382-.881 1.382-1.848m-1.613 2.805c-1.9 0-3.128-1.56-3.128-3.331 0-1.83 1.41-3.16 3.177-3.16 1.947 0 3.195 1.522 3.195 3.265 0 1.991-1.506 3.226-3.244 3.226m-2.029 2.511.5.546v3.457c0 .996-.49 1.245-1.287 1.245-.806 0-1.295-.23-1.295-1.245V51.29l.499-.546v-.02H36.87v.02l.451.546v3.457c0 1.656.844 2.26 2.648 2.26 1.642 0 2.477-.565 2.477-2.212V51.29l.44-.546v-.02h-1.928zm11.59.746a.74.74 0 0 0-.741-.758.74.74 0 0 0-.746.758c0 .44.327.765.746.765.413 0 .742-.324.742-.765m.185 0c0 .53-.428.916-.926.916a.915.915 0 0 1-.93-.916c0-.523.427-.91.93-.91.498 0 .926.387.926.91m-.928-.063c.135 0 .257-.007.257-.17 0-.13-.119-.154-.231-.154h-.219v.324zm.15.129.298.464h-.178l-.277-.457h-.186v.457h-.158v-1.053h.402c.25 0 .372.092.372.299 0 .189-.119.27-.273.29m-.399-9.585.586.546v3.217l-2.467-3.782h-2.217v.02l.452.545v4.941l-.452.546v.02h2.025v-.02l-.594-.546v-4.022l3.08 4.587h1.151v-5.506l.451-.546v-.019h-2.015zm6.189 2.318c-1.104-.307-1.44-.44-1.44-.948 0-.584.758-.7 1.238-.7.403 0 .778.048 1.114.154l.92.996h.02l-.077-1.715a5.1 5.1 0 0 0-1.871-.335c-1.45 0-2.84.498-2.84 1.935 0 .928.642 1.484 2.034 1.867 1.075.297 1.603.488 1.603 1.034 0 .632-.807.766-1.344.766-.451 0-.854-.067-1.2-.172l-.93-1.15h-.02l.067 1.82c.634.287 1.401.392 2.121.392 1.555 0 2.86-.65 2.86-1.962 0-1.236-.854-1.59-2.255-1.982M15.612 45.6h1.564l-.72-2.413zm-.173 2.423h-2.035v-.02l.48-.545 1.872-4.941-.355-.546v-.019h2.063l1.862 5.506.499.546v.02h-2.6v-.02l.498-.546-.278-.948h-2.15l-.326.948.47.546z"/></g><defs><clipPath id="a"><path fill="#fff" d="M0 0h60v57.007H0z"/></clipPath></defs></svg>
