<svg xmlns="http://www.w3.org/2000/svg" width="323" height="267" fill="none" viewBox="0 0 323 267"><path fill="#f6e9e1" d="M190.504 83.315h.215v.214q-1.075 1.02-7.681 4.995-7.304 5.426-12.461 7.896-1.128.913-1.128 1.182v.214q2.954-2.04 10.85-4.78 13.374-6.338 14.287-6.338h2.471q5.586 0 13.589 4.566 5.639 4.458 5.639 11.762v.43q-6.66 4.888-18.53 12.246h.215q4.082-2.31 14.717-6.338 8.217-4.082 8.808-4.082h.215q0 .268-5.64 3.814-1.128 2.525-2.47 8.862-.914 1.128-13.374 8.809v.214h.214q1.397-1.02 12.032-5.21 6.928-3.599 8.11-3.813h.269q-1.236 1.504-10.904 6.768-.536.59-5.21 7.68-12.568 13.214-16.704 15.2-.269.645-.483.645.966 1.719 2.041 6.123v.215q-1.934 1.557-9.722 6.338-2.148 1.826-7.466 4.78v.43q3.223-1.933 18.101-7.896 13.052-6.284 14.717-6.821v.268q-2.041 1.558-13.374 8.594 5.425 15.899 10.903 28.95.43 2.095.43 2.471-3.92 1.611-6.553 1.611-2.9 0-13.804-4.082h-1.396q-1.773 0-9.024 2.041h-.215q-1.235-.376-4.78-10.419-5.746-11.549-9.936-21.968-.323 0-.699-.645-2.631 1.343-6.982 2.471-.86 3.438-3.652 9.936 0 4.083-5.855 6.338-9.775 6.607-10.205 6.607v.215h.43q1.826-1.236 11.816-5.21 6.177-3.384 10.635-4.781h.215q-.43.645-10.205 6.822-.645 0-4.995 13.105-3.545 2.955-11.28 4.995-5.37 1.558-14.716 1.558-8.218 2.685-12.676 5.908 0-.215-.215-.215 5.21-13.481 6.338-17.187 3.867-2.095 18.315-11.817h-.215q-2.256 1.558-14.018 6.123-13.482 6.338-14.072 6.338h-.215l13.374-8.808q.43-1.934 4.511-12.676 0-2.148 4.297-4.082l26.909-17.671h-.214q-34.376 15.2-42.539 19.282h-.43v-.268q.269-.484 8.594-5.425 3.276-2.793 8.11-5.21.698-.699 2.31-6.553l11.064-29.433.483-1.558h-.268q-14.556 6.714-16.275 7.251v-.269l39.585-25.78h-.214q-2.203 1.288-10.206 4.511-4.619 2.739-8.325 3.867-.268-.43-.268-.698 3.222-9.937 4.995-9.937.966 0 35.073-6.123 1.02-.16 9.077-4.082 3.545-1.182 5.64-2.47m-12.246 17.456v.214h.698q8.97-2.954 14.502-6.552 1.772-1.236 1.772-1.397h-.429q-1.719.914-8.164 2.954-5.317 3.6-8.379 4.781m0 9.023v.215q5.64-.967 20.41-8.594 5.747-2.955 6.338-4.082v-.215l-8.862 2.954q-9.776 4.62-16.973 8.809-.913.698-.913.913m-11.763 7.681h-.859q-1.88 6.82-4.351 6.821l-9.238 6.069h.43q3.007-1.934 9.721-4.511l.269.483q-1.558 2.793-2.525 6.553h.484q7.788-1.236 11.064-4.082 4.512-3.653 4.512-8.164 0-3.17-2.686-3.169 0-.43-3.652-.645-1.45.645-3.169.645m2.739 22.182h.43q1.988-.913 10.205-3.813 8.11-4.512 9.292-5.694h-.483q-4.512 1.182-12.193 4.996-6.714 3.545-7.251 4.511m-41.411 2.739v.215h.43q1.397-.751 7.734-2.739 8.755-4.941 8.809-5.156h-.484q-6.015 1.289-15.576 6.982 0 .699-.913.698m49.092-.483q7.52-2.417 12.676-5.64l.483-.698v-.215q-8.11 2.686-13.159 6.123zm-51.348 25.835v.215h.215q10.312-3.492 12.891-6.338v-.215q-7.788 2.579-13.106 6.338"/><path fill="url(#a)" fill-rule="evenodd" d="M211.928 263.379c.512 0 .928.433.928.967 0 .535-.416.968-.928.968-.513 0-.929-.433-.929-.968s.416-.967.929-.967" clip-rule="evenodd"/><path fill="url(#b)" fill-rule="evenodd" d="M321.453 199.342c.513 0 .928.433.928.968s-.415.967-.928.967-.928-.433-.928-.967c0-.535.415-.968.928-.968" clip-rule="evenodd"/><path fill="url(#c)" fill-rule="evenodd" d="M296.702 72.253c.513 0 .928.433.928.968s-.415.968-.928.968-.928-.434-.928-.968c0-.535.415-.968.928-.968" clip-rule="evenodd"/><path fill="url(#d)" fill-rule="evenodd" d="M269.167 25.16c1.025 0 1.856.866 1.856 1.935s-.831 1.935-1.856 1.935-1.857-.866-1.857-1.935c0-1.07.831-1.936 1.857-1.936" clip-rule="evenodd"/><path fill="url(#e)" fill-rule="evenodd" d="M204.814 3.87c1.025 0 1.856.867 1.856 1.936s-.831 1.936-1.856 1.936-1.856-.867-1.856-1.936.831-1.935 1.856-1.935" clip-rule="evenodd"/><path fill="url(#f)" fill-rule="evenodd" d="M113.854 38.707c.684 0 1.238.578 1.238 1.29s-.554 1.29-1.238 1.29-1.237-.577-1.237-1.29c0-.712.554-1.29 1.237-1.29" clip-rule="evenodd"/><path fill="url(#g)" fill-rule="evenodd" d="M47.646 23.87c.341 0 .618.288.618.645a.63.63 0 0 1-.618.645.63.63 0 0 1-.62-.645c0-.357.278-.646.62-.646" clip-rule="evenodd"/><path fill="url(#h)" fill-rule="evenodd" d="M45.79 136.765c.683 0 1.237.578 1.237 1.291 0 .712-.554 1.29-1.238 1.29s-1.237-.578-1.237-1.29.554-1.291 1.237-1.291" clip-rule="evenodd"/><path fill="url(#i)" fill-rule="evenodd" d="M3.403 188.375c1.196 0 2.166 1.011 2.166 2.258s-.97 2.258-2.166 2.258-2.165-1.011-2.165-2.258.97-2.258 2.165-2.258" clip-rule="evenodd"/><path fill="url(#j)" fill-rule="evenodd" d="M102.334 249.461c.684 0 1.238.578 1.238 1.29s-.554 1.291-1.238 1.291-1.237-.578-1.237-1.291c0-.712.554-1.29 1.237-1.29" clip-rule="evenodd"/><path fill="url(#k)" fill-rule="evenodd" d="M268.717 263.385c0-.454-.353-.822-.788-.822s-.787.368-.787.822v1.482h-1.541c-.423 0-.766.358-.766.799s.343.799.766.799h1.541v1.729c0 .453.352.821.787.821s.788-.368.788-.821v-1.729h1.54c.423 0 .766-.358.766-.799s-.343-.799-.766-.799h-1.54z" clip-rule="evenodd"/><path fill="url(#l)" fill-rule="evenodd" d="M306.462 125.329c0-.453-.353-.821-.788-.821-.434 0-.787.368-.787.821v1.483h-1.54c-.423 0-.766.358-.766.799s.343.799.766.799h1.54v1.728c0 .454.353.821.787.821s.788-.367.788-.821v-1.728h1.54c.423 0 .766-.358.766-.799s-.343-.799-.766-.799h-1.54z" clip-rule="evenodd"/><path fill="url(#m)" fill-rule="evenodd" d="M233.919 49.698c0-.726-.564-1.314-1.26-1.314s-1.26.588-1.26 1.313v1.719h-2.305c-.423 0-.766.357-.766.799v.983c0 .44.343.798.766.798h2.305v2.106c0 .725.564 1.314 1.26 1.314s1.26-.589 1.26-1.314v-2.106h2.305c.423 0 .766-.357.766-.798v-.983c0-.442-.343-.8-.766-.8h-2.305z" clip-rule="evenodd"/><path fill="url(#n)" fill-rule="evenodd" d="M76.132 78.083c0-.726-.564-1.314-1.26-1.314s-1.26.588-1.26 1.314V79.8h-2.306c-.423 0-.766.358-.766.799v.983c0 .441.343.799.766.799h2.306v2.105c0 .726.564 1.314 1.26 1.314s1.26-.588 1.26-1.314v-2.105h2.305c.423 0 .766-.358.766-.8V80.6c0-.441-.343-.799-.766-.799h-2.305z" clip-rule="evenodd"/><path fill="url(#o)" fill-rule="evenodd" d="M103.735.739c0-.408-.318-.739-.709-.739-.392 0-.709.33-.709.739v1.325h-1.379c-.385 0-.697.325-.697.726s.312.725.697.725h1.379v1.552c0 .408.317.74.709.74s.709-.332.709-.74V3.515h1.379c.385 0 .696-.325.696-.725 0-.401-.311-.726-.696-.726h-1.379z" clip-rule="evenodd"/><path fill="url(#p)" fill-rule="evenodd" d="M56.708 207.177c0-.408-.317-.739-.709-.739s-.709.331-.709.739v1.325h-1.38c-.384 0-.695.325-.695.726s.311.726.696.726h1.38v1.552c0 .408.317.739.708.739.392 0 .709-.331.709-.739v-1.552h1.38c.384 0 .696-.325.696-.726s-.312-.726-.697-.726h-1.38z" clip-rule="evenodd"/><path fill="url(#q)" fill-rule="evenodd" d="M17.348 78.728c0-.726-.564-1.314-1.26-1.314s-1.26.588-1.26 1.314v2.342h-2.375c-.384 0-.696.325-.696.726v1.128c0 .401.312.726.696.726h2.375v2.127c0 .726.564 1.314 1.26 1.314s1.26-.588 1.26-1.314V83.65h2.376c.384 0 .696-.325.696-.726v-1.129c0-.4-.312-.725-.697-.725h-2.375z" clip-rule="evenodd"/><defs><linearGradient id="a" x1="211.618" x2="211.618" y1="262.088" y2="265.959" gradientUnits="userSpaceOnUse"><stop stop-color="#ededff"/><stop offset="1" stop-color="#e6e6f1"/></linearGradient><linearGradient id="b" x1="321.144" x2="321.144" y1="198.052" y2="201.922" gradientUnits="userSpaceOnUse"><stop stop-color="#ededff"/><stop offset="1" stop-color="#e6e6f1"/></linearGradient><linearGradient id="c" x1="296.393" x2="296.393" y1="70.963" y2="74.834" gradientUnits="userSpaceOnUse"><stop stop-color="#ededff"/><stop offset="1" stop-color="#e6e6f1"/></linearGradient><linearGradient id="d" x1="268.857" x2="268.857" y1="23.869" y2="29.675" gradientUnits="userSpaceOnUse"><stop stop-color="#ededff"/><stop offset="1" stop-color="#e6e6f1"/></linearGradient><linearGradient id="e" x1="204.505" x2="204.505" y1="2.581" y2="8.387" gradientUnits="userSpaceOnUse"><stop stop-color="#ededff"/><stop offset="1" stop-color="#e6e6f1"/></linearGradient><linearGradient id="f" x1="113.545" x2="113.545" y1="37.417" y2="41.933" gradientUnits="userSpaceOnUse"><stop stop-color="#ededff"/><stop offset="1" stop-color="#e6e6f1"/></linearGradient><linearGradient id="g" x1="47.336" x2="47.336" y1="22.579" y2="25.805" gradientUnits="userSpaceOnUse"><stop stop-color="#ededff"/><stop offset="1" stop-color="#e6e6f1"/></linearGradient><linearGradient id="h" x1="45.48" x2="45.48" y1="135.475" y2="139.991" gradientUnits="userSpaceOnUse"><stop stop-color="#ededff"/><stop offset="1" stop-color="#e6e6f1"/></linearGradient><linearGradient id="i" x1="3.094" x2="3.094" y1="187.084" y2="193.536" gradientUnits="userSpaceOnUse"><stop stop-color="#ededff"/><stop offset="1" stop-color="#e6e6f1"/></linearGradient><linearGradient id="j" x1="102.025" x2="102.025" y1="248.171" y2="252.687" gradientUnits="userSpaceOnUse"><stop stop-color="#ededff"/><stop offset="1" stop-color="#e6e6f1"/></linearGradient><linearGradient id="k" x1="267.929" x2="267.929" y1="262.563" y2="269.015" gradientUnits="userSpaceOnUse"><stop stop-color="#ededff"/><stop offset="1" stop-color="#e6e6f1"/></linearGradient><linearGradient id="l" x1="305.674" x2="305.674" y1="124.508" y2="130.959" gradientUnits="userSpaceOnUse"><stop stop-color="#ededff"/><stop offset="1" stop-color="#e6e6f1"/></linearGradient><linearGradient id="m" x1="232.659" x2="232.659" y1="48.384" y2="57.415" gradientUnits="userSpaceOnUse"><stop stop-color="#ededff"/><stop offset="1" stop-color="#e6e6f1"/></linearGradient><linearGradient id="n" x1="74.872" x2="74.872" y1="76.769" y2="85.801" gradientUnits="userSpaceOnUse"><stop stop-color="#ededff"/><stop offset="1" stop-color="#e6e6f1"/></linearGradient><linearGradient id="o" x1="103.026" x2="103.026" y1="0" y2="5.806" gradientUnits="userSpaceOnUse"><stop stop-color="#ededff"/><stop offset="1" stop-color="#e6e6f1"/></linearGradient><linearGradient id="p" x1="55.999" x2="55.999" y1="206.438" y2="212.245" gradientUnits="userSpaceOnUse"><stop stop-color="#ededff"/><stop offset="1" stop-color="#e6e6f1"/></linearGradient><linearGradient id="q" x1="16.088" x2="16.088" y1="77.414" y2="87.091" gradientUnits="userSpaceOnUse"><stop stop-color="#ededff"/><stop offset="1" stop-color="#e6e6f1"/></linearGradient></defs></svg>
