<svg xmlns="http://www.w3.org/2000/svg" width="42" height="42" fill="none" viewBox="0 0 42 42"><g filter="url(#a)"><rect width="40" height="40" x="1" y="1" fill="#149941" rx="9"/></g><path fill="#fff" d="M27.565 8.438h.044v.045q-.225.214-1.606 1.045-1.527 1.134-2.605 1.65-.236.192-.236.248v.045q.618-.427 2.269-1 2.796-1.325 2.987-1.325h.517q1.167 0 2.84.955 1.18.93 1.18 2.46v.089q-1.392 1.022-3.874 2.56h.044q.854-.483 3.078-1.325 1.718-.853 1.841-.853h.045q0 .056-1.179.797-.236.528-.516 1.853-.192.236-2.797 1.842v.045h.045q.292-.213 2.516-1.09 1.447-.752 1.695-.797h.057q-.258.315-2.28 1.415-.112.123-1.09 1.606-2.627 2.763-3.492 3.178-.057.135-.101.135.202.36.427 1.28v.045q-.405.326-2.033 1.325-.45.382-1.561 1v.09q.673-.405 3.784-1.651 2.73-1.314 3.078-1.426v.056q-.427.326-2.797 1.797a95 95 0 0 0 2.28 6.053q.09.438.09.517-.82.336-1.37.337-.608 0-2.886-.854h-.293q-.37 0-1.886.427h-.045q-.258-.08-1-2.179a64 64 0 0 1-2.077-4.593q-.068 0-.146-.135-.55.281-1.46.517-.18.718-.764 2.077 0 .854-1.224 1.325-2.044 1.382-2.134 1.382v.045h.09q.382-.259 2.47-1.09 1.293-.707 2.224-1h.045q-.089.135-2.134 1.427-.134 0-1.044 2.74-.741.618-2.358 1.045-1.123.325-3.078.325-1.717.562-2.65 1.236 0-.045-.045-.045 1.09-2.82 1.325-3.594.81-.438 3.83-2.47h-.045q-.471.324-2.931 1.28-2.82 1.325-2.942 1.325h-.045l2.796-1.842q.09-.405.943-2.65 0-.45.899-.854l5.626-3.695h-.045q-7.187 3.18-8.894 4.032h-.09v-.056q.056-.101 1.797-1.134.685-.585 1.696-1.09.146-.146.482-1.37l2.314-6.154.101-.326h-.056q-3.043 1.404-3.403 1.516v-.056l8.277-5.39h-.045q-.46.27-2.134.943-.966.572-1.74.809a.3.3 0 0 1-.057-.147q.675-2.077 1.045-2.077.203 0 7.333-1.28.214-.034 1.898-.854.74-.247 1.18-.517m-2.561 3.65v.045h.146q1.875-.617 3.032-1.37.37-.258.37-.292h-.09q-.359.19-1.706.618-1.111.753-1.752 1m0 1.887v.045q1.18-.203 4.267-1.797 1.202-.618 1.326-.853v-.045l-1.853.617a47 47 0 0 0-3.55 1.842q-.19.147-.19.191m-2.46 1.606h-.18q-.392 1.425-.909 1.426l-1.932 1.27h.09q.63-.405 2.033-.944l.056.101q-.325.584-.528 1.37h.101q1.629-.258 2.314-.853.943-.764.943-1.707 0-.663-.561-.663 0-.09-.764-.135-.303.135-.663.135m.573 4.638h.09q.415-.19 2.134-.797 1.695-.944 1.943-1.19h-.101q-.945.246-2.55 1.044-1.403.74-1.516.943m-8.658.573v.045h.09q.291-.157 1.617-.573 1.83-1.033 1.841-1.078h-.1q-1.26.27-3.258 1.46 0 .146-.19.146m10.264-.101q1.572-.505 2.65-1.18l.102-.145v-.045q-1.695.56-2.752 1.28zm-10.736 5.402v.045h.045q2.156-.73 2.695-1.326v-.044q-1.629.538-2.74 1.325"/><defs><filter id="a" width="42" height="42" x="0" y="0" color-interpolation-filters="sRGB" filterUnits="userSpaceOnUse"><feFlood flood-opacity="0" result="BackgroundImageFix"/><feColorMatrix in="SourceAlpha" result="hardAlpha" values="0 0 0 0 0 0 0 0 0 0 0 0 0 0 0 0 0 0 127 0"/><feOffset/><feGaussianBlur stdDeviation=".5"/><feComposite in2="hardAlpha" operator="out"/><feColorMatrix values="0 0 0 0 0 0 0 0 0 0 0 0 0 0 0 0 0 0 0.51 0"/><feBlend in2="BackgroundImageFix" result="effect1_dropShadow_209_1936"/><feBlend in="SourceGraphic" in2="effect1_dropShadow_209_1936" result="shape"/></filter></defs></svg>
