<svg xmlns="http://www.w3.org/2000/svg" width="50" height="64" fill="none" viewBox="0 0 50 64"><path fill="#360d3a" d="M9.907 5.262c2.795 1.315 4.645 2.918 4.974 3.165-.123-.74-.699-4.234-1.069-6.372 1.603 1.11 5.467 3.782 6.7 4.646C21.007 5.138 22.816 0 22.816 0s3.206 5.138 3.7 6.002c.698-.658 4.48-4.933 5.467-6.002.205 2.425.37 5.96.452 6.454.205-.247 1.685-2.302 4.11-4.234-1.068 2.096-1.561 4.974-1.808 7.317a27.3 27.3 0 0 0-7.564-1.069 28.03 28.03 0 0 0-13.894 3.659c-.7-2.261-1.809-5.057-3.371-6.865m38.559 44.15-2.22-2.467c-.617 6.618-3.905 12.29-9.866 16.237l-.945-3.576c-5.098 3.658-13.771 6.002-21.253 1.809.946-4.728 1.727-9.537 0-15.292-4.152 6.371-7.81 8.92-7.81 8.92-2.796-4.727-2.549-14.141-1.727-16.936L0 39.545c0-3.165 2.302-9.865 5.59-13.647l-2.836-.452c1.973-4.029 4.892-7.482 8.55-10.154-1.11 1.809-1.11 6.002 2.056 7.605-1.357-2.343-1.48-5.262-.123-6.824 1.438-1.562 3.781-.987 5.261.206-.452-1.316-1.808-2.96-3.7-3.084 3.7-1.931 8.017-2.96 12.456-2.96.863 0 1.686.083 2.467.124 1.315.493 3.206 2.343 4.11 3.535 0 0 .083-1.356-.698-2.96 4.85 1.193 7.194 3.166 8.139 4.111.206 2.097.822 3.33 1.685 5.344-1.562-1.726-5.508-4.604-7.44-5.261 0 0-.206 1.808-.822 2.672-3.782-2.714-5.59-3.412-5.59-3.412-4.194.41-6.784 2.055-8.263 3.288l1.233 1.069c-2.467.74-4.111 2.919-4.111 2.919 0 .082 2.22.37 2.22.37s-.247 2.59 3.042 4.234c2.795 1.356 6.741-.33 10.523 1.192-2.466-2.837-4.152-4.152-4.152-4.152s-.986-.206-1.685-.206c-.863 0-2.179.206-3.535-.37-.7-.246-1.48-.74-2.056-1.11 0 0 1.727-1.808 4.276-2.178 0 0 2.302.617 4.11 1.973 1.192-1.192 2.467-1.11 2.467-1.11s-1.233 1.192-.864 2.549c1.81 1.603 3.782 3.905 3.782 3.905 1.974-1.11 6.331-.863 7.235.206-1.11-1.48-2.795-2.672-4.028-3.7-.123-.576-1.562-2.467-1.727-2.672 0 0 1.316.452 2.467 1.439.329-.494.986-.987 1.808-1.192.864.74 1.07 1.85.987 2.055-.37.493-.822.699-.822.699l2.096 2.302.206-1.686c4.892 6.948 7.564 15.046 4.152 25.2m-9.208-15.005v-3.576s-1.604-.494-3.33-1.85c-3.453.493-7.605 3.987-7.605 3.987s1.439 2.672 2.96 5.59c2.713.289 6.742-3.082 7.975-4.151m3.453 6.495s-.247-1.48-1.48-2.836l-2.672.082s-3.659 3.083-5.837 3.165l1.85 3.453c1.233-.246 3.33-1.233 4.233-2.22 0 0 .576 1.85.453 4.029 1.233-.781 2.918-2.672 3.453-5.673m1.11-11.839a27 27 0 0 1-2.467 1.809v3.576c.987 1.069 1.932 1.973 2.672 3.577 1.357-2.385 1.028-5.961-.205-8.962"/></svg>
