<svg width="323" height="270" fill="none" xmlns="http://www.w3.org/2000/svg"><path d="M190.504 83.314h.215v.215c-.716.68-3.277 2.346-7.681 4.995-4.87 3.617-9.023 6.249-12.461 7.896-.752.609-1.128 1.002-1.128 1.182v.214c1.97-1.36 5.586-2.954 10.85-4.78 8.916-4.225 13.678-6.338 14.287-6.338h2.471c3.724 0 8.253 1.522 13.589 4.566 3.759 2.972 5.639 6.893 5.639 11.762v.43c-4.44 3.259-10.617 7.341-18.53 12.246h.215c2.721-1.54 7.627-3.652 14.717-6.338 5.478-2.721 8.414-4.082 8.808-4.082h.215c0 .179-1.88 1.45-5.64 3.814-.752 1.683-1.575 4.637-2.47 8.862-.609.752-5.067 3.688-13.374 8.809v.214h.214c.931-.68 4.942-2.417 12.032-5.21 4.619-2.399 7.322-3.67 8.11-3.813h.269c-.824 1.003-4.458 3.258-10.904 6.768-.358.393-2.094 2.954-5.21 7.68-8.379 8.809-13.947 13.876-16.704 15.2-.179.43-.34.645-.483.645.644 1.146 1.325 3.187 2.041 6.123v.215c-1.289 1.038-4.53 3.151-9.722 6.338-1.432 1.217-3.921 2.811-7.466 4.78v.43c2.149-1.289 8.182-3.921 18.101-7.896 8.701-4.189 13.607-6.463 14.717-6.821v.268c-1.361 1.039-5.819 3.903-13.374 8.594 3.616 10.599 7.251 20.249 10.903 28.95.286 1.397.43 2.22.43 2.471-2.614 1.074-4.798 1.611-6.553 1.611-1.934 0-6.535-1.36-13.804-4.082h-1.396c-1.182 0-4.19.681-9.024 2.041h-.215c-.823-.25-2.417-3.724-4.78-10.419-3.831-7.699-7.143-15.022-9.936-21.968-.215 0-.448-.215-.699-.645-1.754.895-4.082 1.719-6.982 2.471-.573 2.292-1.79 5.604-3.652 9.936 0 2.722-1.952 4.834-5.855 6.338-6.517 4.405-9.918 6.607-10.205 6.607v.215h.43c1.217-.824 5.156-2.561 11.816-5.21 4.118-2.256 7.663-3.85 10.635-4.781h.215c-.287.43-3.688 2.704-10.205 6.822-.43 0-2.095 4.368-4.995 13.105-2.364 1.97-6.123 3.635-11.28 4.995-3.58 1.039-8.486 1.558-14.716 1.558-5.479 1.79-9.704 3.76-12.676 5.908 0-.143-.072-.215-.215-.215 3.473-8.987 5.586-14.717 6.338-17.187 2.578-1.397 8.683-5.336 18.315-11.817h-.215c-1.504 1.039-6.176 3.08-14.018 6.123-8.988 4.226-13.679 6.338-14.072 6.338h-.215l13.374-8.808c.286-1.289 1.79-5.515 4.511-12.676 0-1.432 1.433-2.793 4.297-4.082l26.909-17.671h-.214c-22.917 10.133-37.097 16.561-42.539 19.282h-.43v-.268c.179-.323 3.044-2.131 8.594-5.425 2.184-1.862 4.887-3.599 8.11-5.21.466-.466 1.235-2.65 2.31-6.553l11.064-29.433.483-1.558h-.268c-9.704 4.476-15.129 6.893-16.275 7.251v-.269l39.585-25.78h-.214c-1.469.859-4.87 2.362-10.206 4.511-3.079 1.826-5.854 3.115-8.325 3.867-.179-.286-.268-.519-.268-.698 2.148-6.625 3.813-9.937 4.995-9.937.644 0 12.335-2.04 35.073-6.123.68-.107 3.706-1.468 9.077-4.082 2.364-.788 4.243-1.611 5.64-2.47Zm-12.246 17.457v.214h.698c5.98-1.969 10.814-4.153 14.502-6.552 1.182-.824 1.772-1.29 1.772-1.397h-.429c-1.146.609-3.867 1.594-8.164 2.954-3.545 2.4-6.338 3.993-8.379 4.781Zm0 9.023v.215c3.76-.645 10.563-3.509 20.41-8.594 3.831-1.97 5.944-3.33 6.338-4.082v-.215l-8.862 2.954c-6.517 3.08-12.175 6.016-16.973 8.809-.609.465-.913.77-.913.913Zm-11.763 7.681h-.859c-1.254 4.547-2.704 6.821-4.351 6.821l-9.238 6.069h.43c2.005-1.289 5.245-2.793 9.721-4.511l.269.483c-1.039 1.862-1.88 4.046-2.525 6.553h.484c5.192-.824 8.88-2.185 11.064-4.082 3.008-2.435 4.512-5.157 4.512-8.164 0-2.113-.895-3.169-2.686-3.169 0-.287-1.217-.502-3.652-.645-.967.43-2.023.645-3.169.645Zm2.739 22.182h.43c1.325-.608 4.727-1.88 10.205-3.813 5.407-3.008 8.504-4.906 9.292-5.694h-.483c-3.008.788-7.072 2.453-12.193 4.996-4.476 2.363-6.893 3.867-7.251 4.511Zm-41.411 2.739v.215h.43c.931-.501 3.509-1.414 7.734-2.739 5.837-3.294 8.773-5.013 8.809-5.156h-.484c-4.01.859-9.202 3.187-15.576 6.982 0 .466-.304.698-.913.698Zm49.092-.483c5.013-1.611 9.238-3.491 12.676-5.64l.483-.698v-.215c-5.407 1.791-9.793 3.832-13.159 6.123v.43Zm-51.348 25.835v.215h.215c6.875-2.328 11.172-4.44 12.891-6.338v-.215c-5.192 1.719-9.561 3.832-13.106 6.338Z" fill="#F8F8F8"/><path fill-rule="evenodd" clip-rule="evenodd" d="M211.928 263.378c.512 0 .928.434.928.968s-.416.968-.928.968c-.513 0-.929-.434-.929-.968s.416-.968.929-.968Z" fill="url(#a)"/><path fill-rule="evenodd" clip-rule="evenodd" d="M321.453 199.342c.513 0 .928.433.928.968 0 .534-.415.967-.928.967-.513 0-.928-.433-.928-.967 0-.535.415-.968.928-.968Z" fill="url(#b)"/><path fill-rule="evenodd" clip-rule="evenodd" d="M296.702 72.253c.513 0 .928.434.928.968s-.415.968-.928.968c-.513 0-.928-.433-.928-.968 0-.534.415-.968.928-.968Z" fill="url(#c)"/><path fill-rule="evenodd" clip-rule="evenodd" d="M269.167 25.16c1.025 0 1.856.866 1.856 1.935s-.831 1.935-1.856 1.935c-1.026 0-1.857-.866-1.857-1.935s.831-1.935 1.857-1.935Z" fill="url(#d)"/><path fill-rule="evenodd" clip-rule="evenodd" d="M204.814 3.87c1.025 0 1.857.867 1.857 1.936s-.832 1.936-1.857 1.936-1.856-.867-1.856-1.936.831-1.935 1.856-1.935Z" fill="url(#e)"/><path fill-rule="evenodd" clip-rule="evenodd" d="M113.854 38.707c.684 0 1.238.578 1.238 1.29 0 .713-.554 1.29-1.238 1.29-.683 0-1.237-.577-1.237-1.29 0-.712.554-1.29 1.237-1.29Z" fill="url(#f)"/><path fill-rule="evenodd" clip-rule="evenodd" d="M47.645 23.87c.342 0 .62.288.62.645a.632.632 0 0 1-.62.645.632.632 0 0 1-.618-.645c0-.357.277-.646.618-.646Z" fill="url(#g)"/><path fill-rule="evenodd" clip-rule="evenodd" d="M45.79 136.765c.683 0 1.237.578 1.237 1.291 0 .712-.554 1.29-1.238 1.29-.683 0-1.237-.578-1.237-1.29 0-.713.554-1.291 1.237-1.291Z" fill="url(#h)"/><path fill-rule="evenodd" clip-rule="evenodd" d="M3.403 188.375c1.196 0 2.166 1.011 2.166 2.258s-.97 2.258-2.166 2.258-2.165-1.011-2.165-2.258.97-2.258 2.165-2.258Z" fill="url(#i)"/><path fill-rule="evenodd" clip-rule="evenodd" d="M102.335 249.461c.683 0 1.237.578 1.237 1.291 0 .712-.554 1.29-1.237 1.29-.684 0-1.238-.578-1.238-1.29 0-.713.554-1.291 1.238-1.291Z" fill="url(#j)"/><path fill-rule="evenodd" clip-rule="evenodd" d="M268.717 263.385c0-.454-.353-.822-.788-.822-.435 0-.787.368-.787.822v1.482h-1.541c-.423 0-.766.358-.766.799 0 .441.343.799.766.799h1.541v1.729c0 .453.352.821.787.821.435 0 .788-.368.788-.821v-1.729h1.54c.423 0 .766-.358.766-.799 0-.441-.343-.799-.766-.799h-1.54v-1.482Z" fill="url(#k)"/><path fill-rule="evenodd" clip-rule="evenodd" d="M306.462 125.329c0-.453-.353-.821-.788-.821-.435 0-.787.368-.787.821v1.483h-1.54c-.424 0-.767.358-.767.799 0 .441.343.798.767.798h1.54v1.729c0 .454.352.821.787.821.435 0 .788-.367.788-.821v-1.729h1.54c.423 0 .766-.357.766-.798 0-.441-.343-.799-.766-.799h-1.54v-1.483Z" fill="url(#l)"/><path fill-rule="evenodd" clip-rule="evenodd" d="M233.919 49.698c0-.726-.564-1.314-1.26-1.314-.696 0-1.26.588-1.26 1.314v1.718h-2.305c-.423 0-.766.358-.766.799v.983c0 .441.343.799.766.799h2.305v2.105c0 .726.564 1.314 1.26 1.314.696 0 1.26-.588 1.26-1.314v-2.105h2.305c.423 0 .766-.358.766-.8v-.982c0-.441-.343-.799-.766-.799h-2.305v-1.718Z" fill="url(#m)"/><path fill-rule="evenodd" clip-rule="evenodd" d="M76.132 78.083c0-.726-.565-1.314-1.26-1.314-.696 0-1.26.588-1.26 1.314V79.8h-2.306c-.423 0-.766.358-.766.799v.983c0 .441.343.799.766.799h2.306v2.105c0 .726.564 1.314 1.26 1.314.695 0 1.26-.588 1.26-1.314v-2.105h2.305c.423 0 .766-.358.766-.8V80.6c0-.441-.343-.799-.766-.799h-2.305v-1.718Z" fill="url(#n)"/><path fill-rule="evenodd" clip-rule="evenodd" d="M103.735.739c0-.408-.318-.739-.709-.739-.392 0-.709.33-.709.739v1.325h-1.38c-.384 0-.696.325-.696.726 0 .4.312.725.696.725h1.38v1.552c0 .408.317.74.709.74.391 0 .709-.332.709-.74V3.515h1.379c.385 0 .696-.324.696-.725 0-.401-.311-.726-.696-.726h-1.379V.739Z" fill="url(#o)"/><path fill-rule="evenodd" clip-rule="evenodd" d="M56.708 207.177c0-.408-.317-.739-.709-.739-.391 0-.709.331-.709.739v1.325h-1.38c-.384 0-.695.325-.695.726 0 .401.311.726.696.726h1.38v1.551c0 .408.317.739.708.739.392 0 .709-.331.709-.739v-1.551h1.38c.384 0 .695-.325.695-.726 0-.401-.311-.726-.696-.726h-1.38v-1.325Z" fill="url(#p)"/><path fill-rule="evenodd" clip-rule="evenodd" d="M17.348 78.728c0-.725-.564-1.314-1.26-1.314-.696 0-1.26.588-1.26 1.314v2.342h-2.375c-.385 0-.696.325-.696.726v1.129c0 .4.311.725.696.725h2.375v2.127c0 .726.564 1.314 1.26 1.314.696 0 1.26-.588 1.26-1.314V83.65h2.375c.385 0 .697-.325.697-.725v-1.13c0-.4-.312-.725-.697-.725h-2.375v-2.342Z" fill="url(#q)"/><defs><linearGradient id="a" x1="211.618" y1="262.088" x2="211.618" y2="265.959" gradientUnits="userSpaceOnUse"><stop stop-color="#EFEFEF"/><stop offset="1" stop-color="#FBFBFB"/></linearGradient><linearGradient id="b" x1="321.144" y1="198.052" x2="321.144" y2="201.922" gradientUnits="userSpaceOnUse"><stop stop-color="#EFEFEF"/><stop offset="1" stop-color="#FBFBFB"/></linearGradient><linearGradient id="c" x1="296.393" y1="70.963" x2="296.393" y2="74.834" gradientUnits="userSpaceOnUse"><stop stop-color="#EFEFEF"/><stop offset="1" stop-color="#FBFBFB"/></linearGradient><linearGradient id="d" x1="268.857" y1="23.869" x2="268.857" y2="29.675" gradientUnits="userSpaceOnUse"><stop stop-color="#EFEFEF"/><stop offset="1" stop-color="#FBFBFB"/></linearGradient><linearGradient id="e" x1="204.505" y1="2.581" x2="204.505" y2="8.387" gradientUnits="userSpaceOnUse"><stop stop-color="#EFEFEF"/><stop offset="1" stop-color="#FBFBFB"/></linearGradient><linearGradient id="f" x1="113.545" y1="37.417" x2="113.545" y2="41.933" gradientUnits="userSpaceOnUse"><stop stop-color="#EFEFEF"/><stop offset="1" stop-color="#FBFBFB"/></linearGradient><linearGradient id="g" x1="47.336" y1="22.579" x2="47.336" y2="25.805" gradientUnits="userSpaceOnUse"><stop stop-color="#EFEFEF"/><stop offset="1" stop-color="#FBFBFB"/></linearGradient><linearGradient id="h" x1="45.48" y1="135.475" x2="45.48" y2="139.991" gradientUnits="userSpaceOnUse"><stop stop-color="#EFEFEF"/><stop offset="1" stop-color="#FBFBFB"/></linearGradient><linearGradient id="i" x1="3.094" y1="187.084" x2="3.094" y2="193.536" gradientUnits="userSpaceOnUse"><stop stop-color="#EFEFEF"/><stop offset="1" stop-color="#FBFBFB"/></linearGradient><linearGradient id="j" x1="102.025" y1="248.171" x2="102.025" y2="252.687" gradientUnits="userSpaceOnUse"><stop stop-color="#EFEFEF"/><stop offset="1" stop-color="#FBFBFB"/></linearGradient><linearGradient id="k" x1="267.929" y1="262.563" x2="267.929" y2="269.015" gradientUnits="userSpaceOnUse"><stop stop-color="#EFEFEF"/><stop offset="1" stop-color="#FBFBFB"/></linearGradient><linearGradient id="l" x1="305.674" y1="124.508" x2="305.674" y2="130.959" gradientUnits="userSpaceOnUse"><stop stop-color="#EFEFEF"/><stop offset="1" stop-color="#FBFBFB"/></linearGradient><linearGradient id="m" x1="232.659" y1="48.384" x2="232.659" y2="57.416" gradientUnits="userSpaceOnUse"><stop stop-color="#EFEFEF"/><stop offset="1" stop-color="#FBFBFB"/></linearGradient><linearGradient id="n" x1="74.872" y1="76.769" x2="74.872" y2="85.801" gradientUnits="userSpaceOnUse"><stop stop-color="#EFEFEF"/><stop offset="1" stop-color="#FBFBFB"/></linearGradient><linearGradient id="o" x1="103.026" y1="0" x2="103.026" y2="5.806" gradientUnits="userSpaceOnUse"><stop stop-color="#EFEFEF"/><stop offset="1" stop-color="#FBFBFB"/></linearGradient><linearGradient id="p" x1="55.999" y1="206.438" x2="55.999" y2="212.244" gradientUnits="userSpaceOnUse"><stop stop-color="#EFEFEF"/><stop offset="1" stop-color="#FBFBFB"/></linearGradient><linearGradient id="q" x1="16.088" y1="77.414" x2="16.088" y2="87.091" gradientUnits="userSpaceOnUse"><stop stop-color="#EFEFEF"/><stop offset="1" stop-color="#FBFBFB"/></linearGradient></defs></svg>
