<svg width="42" height="42" fill="none" xmlns="http://www.w3.org/2000/svg"><g filter="url(#a)"><rect x="1" y="1" width="40" height="40" rx="9" fill="#149941"/></g><path d="M27.564 8.438h.045v.045c-.15.143-.685.49-1.606 1.045-1.018.756-1.886 1.306-2.605 1.65-.157.128-.236.21-.236.248v.045c.412-.285 1.168-.618 2.269-1 1.864-.883 2.86-1.325 2.987-1.325h.517c.778 0 1.725.318 2.84.955.787.621 1.18 1.44 1.18 2.46v.089c-.928.681-2.22 1.535-3.874 2.56h.044c.57-.322 1.595-.763 3.078-1.325 1.145-.569 1.76-.853 1.841-.853h.045c0 .037-.393.303-1.179.797-.157.352-.33.97-.516 1.853-.128.157-1.06.771-2.797 1.842v.045h.045c.195-.142 1.033-.505 2.516-1.09.965-.501 1.53-.767 1.695-.797h.057c-.172.21-.932.681-2.28 1.415-.075.082-.438.618-1.09 1.606-1.751 1.842-2.916 2.901-3.492 3.178-.038.09-.071.135-.101.135.134.24.277.667.427 1.28v.045c-.27.217-.948.66-2.033 1.325-.3.255-.82.588-1.561 1v.09c.449-.27 1.71-.82 3.784-1.651 1.82-.876 2.846-1.351 3.078-1.426v.056c-.285.217-1.217.816-2.797 1.797a94.812 94.812 0 0 0 2.28 6.053c.06.292.09.464.09.517-.547.224-1.003.337-1.37.337-.405 0-1.367-.285-2.886-.854h-.293c-.247 0-.875.142-1.886.427h-.045c-.172-.053-.505-.779-1-2.179a63.594 63.594 0 0 1-2.077-4.593c-.045 0-.094-.045-.146-.135-.367.187-.854.36-1.46.517-.12.479-.375 1.171-.764 2.077 0 .57-.408 1.011-1.224 1.325-1.363.921-2.074 1.382-2.134 1.382v.045h.09c.255-.172 1.078-.536 2.47-1.09.862-.471 1.603-.805 2.224-1h.045c-.06.09-.77.566-2.134 1.427-.09 0-.438.913-1.044 2.74-.494.412-1.28.76-2.358 1.045-.749.217-1.775.325-3.078.325-1.145.375-2.028.787-2.65 1.236 0-.03-.015-.045-.045-.045.726-1.88 1.168-3.077 1.325-3.594.54-.292 1.816-1.115 3.83-2.47h-.045c-.314.216-1.291.643-2.931 1.28-1.88.883-2.86 1.325-2.942 1.325h-.045l2.796-1.842c.06-.27.374-1.153.943-2.65 0-.3.3-.584.899-.854l5.626-3.695h-.045c-4.791 2.12-7.756 3.463-8.894 4.032h-.09v-.056c.037-.067.636-.446 1.797-1.134.457-.39 1.022-.753 1.696-1.09.097-.097.258-.554.482-1.37l2.314-6.154.101-.326h-.056c-2.029.936-3.163 1.442-3.403 1.516v-.056l8.277-5.39h-.045c-.307.18-1.018.494-2.134.943-.644.382-1.224.651-1.74.809a.3.3 0 0 1-.057-.147c.45-1.385.798-2.077 1.045-2.077.135 0 2.58-.427 7.333-1.28.143-.023.775-.307 1.898-.854.494-.165.887-.337 1.18-.517Zm-2.56 3.65v.045h.146c1.25-.411 2.261-.868 3.032-1.37.247-.172.37-.27.37-.292h-.09c-.239.127-.808.333-1.706.618-.741.502-1.325.835-1.752 1Zm0 1.887v.045c.786-.135 2.209-.734 4.267-1.797.802-.412 1.243-.696 1.326-.853v-.045l-1.853.617a47.237 47.237 0 0 0-3.55 1.842c-.127.098-.19.161-.19.191Zm-2.46 1.606h-.18c-.261.95-.565 1.426-.909 1.426l-1.932 1.27h.09c.42-.27 1.097-.585 2.033-.944l.056.101c-.217.39-.393.846-.528 1.37h.101c1.086-.172 1.857-.456 2.314-.853.629-.51.943-1.078.943-1.707 0-.442-.187-.663-.561-.663 0-.06-.255-.105-.764-.135-.202.09-.423.135-.663.135Zm.573 4.638h.09c.277-.127.988-.393 2.134-.797 1.13-.629 1.778-1.026 1.943-1.19h-.101c-.63.164-1.48.512-2.55 1.044-.936.494-1.44.808-1.516.943Zm-8.659.573v.045h.09c.195-.105.734-.296 1.618-.573 1.22-.689 1.834-1.048 1.841-1.078h-.1c-.84.18-1.925.666-3.258 1.46 0 .097-.063.146-.19.146Zm10.265-.101c1.048-.337 1.932-.73 2.65-1.18l.102-.145v-.045c-1.13.374-2.048.8-2.752 1.28v.09Zm-10.736 5.402v.045h.045c1.437-.487 2.336-.929 2.695-1.326v-.044c-1.086.359-1.999.8-2.74 1.325Z" fill="#fff"/><defs><filter id="a" x="0" y="0" width="42" height="42" filterUnits="userSpaceOnUse" color-interpolation-filters="sRGB"><feFlood flood-opacity="0" result="BackgroundImageFix"/><feColorMatrix in="SourceAlpha" values="0 0 0 0 0 0 0 0 0 0 0 0 0 0 0 0 0 0 127 0" result="hardAlpha"/><feOffset/><feGaussianBlur stdDeviation=".5"/><feComposite in2="hardAlpha" operator="out"/><feColorMatrix values="0 0 0 0 0 0 0 0 0 0 0 0 0 0 0 0 0 0 0.51 0"/><feBlend in2="BackgroundImageFix" result="effect1_dropShadow_209_1936"/><feBlend in="SourceGraphic" in2="effect1_dropShadow_209_1936" result="shape"/></filter></defs></svg>
