<svg width="127" height="124" fill="none" xmlns="http://www.w3.org/2000/svg"><path d="M95.504.314h.215V.53c-.716.68-3.277 2.346-7.68 4.995-4.87 3.617-9.024 6.249-12.462 7.896-.752.609-1.128 1.002-1.128 1.182v.214c1.97-1.36 5.586-2.954 10.85-4.78 8.916-4.225 13.678-6.338 14.287-6.338h2.471c3.724 0 8.253 1.522 13.589 4.566 3.759 2.972 5.639 6.893 5.639 11.762v.43c-4.44 3.259-10.617 7.34-18.53 12.246h.215c2.721-1.54 7.627-3.652 14.717-6.338 5.478-2.721 8.414-4.082 8.808-4.082h.215c0 .18-1.88 1.45-5.64 3.814-.752 1.683-1.575 4.637-2.47 8.862-.609.752-5.067 3.688-13.374 8.809v.214h.214c.931-.68 4.942-2.416 12.032-5.21 4.619-2.399 7.322-3.67 8.11-3.813h.269c-.824 1.003-4.458 3.259-10.904 6.768-.358.394-2.094 2.954-5.21 7.68-8.379 8.809-13.947 13.876-16.704 15.2-.179.43-.34.645-.483.645.644 1.146 1.325 3.187 2.04 6.123v.215c-1.288 1.038-4.529 3.15-9.72 6.338-1.433 1.217-3.922 2.81-7.467 4.78v.43c2.149-1.29 8.182-3.921 18.1-7.896 8.702-4.19 13.608-6.463 14.718-6.821v.269c-1.361 1.038-5.819 3.903-13.374 8.593 3.616 10.6 7.251 20.25 10.903 28.95.286 1.397.43 2.22.43 2.471-2.614 1.074-4.798 1.611-6.553 1.611-1.934 0-6.535-1.36-13.804-4.082h-1.396c-1.182 0-4.19.681-9.024 2.041h-.215c-.823-.25-2.416-3.724-4.78-10.42-3.831-7.698-7.143-15.02-9.936-21.967-.215 0-.448-.215-.699-.645-1.754.895-4.082 1.719-6.982 2.47-.573 2.293-1.79 5.605-3.652 9.937 0 2.722-1.952 4.834-5.855 6.338-6.517 4.405-9.918 6.607-10.205 6.607v.215h.43c1.217-.824 5.156-2.56 11.816-5.21 4.118-2.256 7.663-3.85 10.635-4.78h.215c-.287.43-3.688 2.703-10.205 6.82-.43 0-2.095 4.369-4.995 13.106-2.364 1.97-6.123 3.635-11.28 4.995-3.58 1.039-8.486 1.558-14.716 1.558-5.479 1.79-9.704 3.76-12.676 5.908 0-.143-.072-.215-.215-.215 3.473-8.987 5.586-14.717 6.338-17.187 2.578-1.397 8.683-5.336 18.315-11.817h-.215c-1.503 1.039-6.176 3.08-14.018 6.123C5.52 104.335.829 106.447.436 106.447H.22l13.374-8.808c.286-1.29 1.79-5.515 4.511-12.676 0-1.432 1.433-2.793 4.297-4.082l26.91-17.671h-.215C26.18 73.343 12 79.77 6.558 82.492h-.43v-.268c.18-.323 3.045-2.13 8.595-5.425 2.184-1.862 4.887-3.599 8.11-5.21.466-.466 1.235-2.65 2.31-6.553l11.064-29.434.483-1.557h-.268c-9.704 4.476-15.129 6.893-16.274 7.25v-.268l39.584-25.78h-.214c-1.468.858-4.87 2.362-10.206 4.51-3.079 1.827-5.854 3.116-8.325 3.868-.179-.287-.268-.52-.268-.698 2.148-6.625 3.813-9.937 4.995-9.937.644 0 12.336-2.04 35.073-6.123.68-.107 3.706-1.468 9.077-4.082 2.364-.788 4.243-1.611 5.64-2.47ZM83.258 17.77v.215h.698c5.98-1.969 10.814-4.153 14.502-6.552 1.182-.824 1.772-1.29 1.772-1.397h-.43c-1.145.609-3.866 1.594-8.163 2.954-3.545 2.4-6.338 3.993-8.38 4.78Zm0 9.024v.215c3.76-.645 10.563-3.51 20.41-8.594 3.831-1.97 5.944-3.33 6.338-4.082v-.215l-8.862 2.954c-6.517 3.08-12.175 6.016-16.973 8.809-.609.465-.913.77-.913.913Zm-11.763 7.68h-.86c-1.253 4.548-2.703 6.822-4.35 6.822l-9.238 6.07h.43c2.005-1.29 5.245-2.794 9.721-4.513l.269.484c-1.039 1.862-1.88 4.046-2.525 6.553h.484c5.192-.824 8.88-2.185 11.064-4.082 3.008-2.435 4.512-5.157 4.512-8.164 0-2.113-.895-3.17-2.686-3.17 0-.286-1.217-.5-3.652-.644-.967.43-2.023.645-3.169.645Zm2.74 22.183h.43c1.324-.608 4.726-1.88 10.204-3.813 5.407-3.008 8.504-4.906 9.292-5.694h-.483c-3.008.788-7.072 2.453-12.193 4.995-4.476 2.364-6.893 3.868-7.25 4.512Zm-41.412 2.74v.214h.43c.93-.501 3.509-1.414 7.734-2.739 5.837-3.294 8.773-5.013 8.809-5.156h-.483c-4.01.86-9.203 3.187-15.577 6.982 0 .466-.304.699-.913.699Zm49.092-.484c5.013-1.611 9.238-3.491 12.676-5.64l.483-.698v-.215c-5.407 1.79-9.793 3.832-13.159 6.123v.43ZM30.567 84.748v.215h.215c6.875-2.328 11.172-4.44 12.89-6.338v-.215c-5.191 1.719-9.56 3.832-13.105 6.338Z" fill="#070707"/></svg>
