<svg width="127" height="123" viewBox="0 0 127 123" fill="none" xmlns="http://www.w3.org/2000/svg">
<path d="M95.2832 0H95.498V0.214844C94.7819 0.895182 92.2217 2.56022 87.8174 5.20996C82.9476 8.8265 78.7939 11.4583 75.3564 13.1055C74.6045 13.7142 74.2285 14.1081 74.2285 14.2871V14.502C76.1979 13.1413 79.8145 11.5479 85.0781 9.72168C93.9941 5.49642 98.7565 3.38379 99.3652 3.38379H101.836C105.56 3.38379 110.09 4.9056 115.425 7.94922C119.185 10.9212 121.064 14.8421 121.064 19.7119V20.1416C116.624 23.4001 110.448 27.4821 102.534 32.3877H102.749C105.47 30.848 110.376 28.7354 117.466 26.0498C122.944 23.3285 125.881 21.9678 126.274 21.9678H126.489C126.489 22.1468 124.609 23.418 120.85 25.7812C120.098 27.4642 119.274 30.4183 118.379 34.6436C117.77 35.3955 113.312 38.3317 105.005 43.4521V43.667H105.22C106.151 42.9867 110.161 41.25 117.251 38.457C121.87 36.0579 124.574 34.7868 125.361 34.6436H125.63C124.806 35.6462 121.172 37.902 114.727 41.4111C114.368 41.805 112.632 44.3652 109.517 49.0918C101.138 57.9004 95.5697 62.9671 92.8125 64.292C92.6335 64.7217 92.4723 64.9365 92.3291 64.9365C92.9736 66.0824 93.654 68.1234 94.3701 71.0596V71.2744C93.0811 72.3128 89.8405 74.4255 84.6484 77.6123C83.2161 78.8298 80.7275 80.4232 77.1826 82.3926V82.8223C79.3311 81.5332 85.3646 78.9014 95.2832 74.9268C103.984 70.7373 108.89 68.4635 110 68.1055V68.374C108.639 69.4124 104.181 72.277 96.626 76.9678C100.243 87.5667 103.877 97.2168 107.529 105.918C107.816 107.314 107.959 108.138 107.959 108.389C105.345 109.463 103.161 110 101.406 110C99.4727 110 94.8714 108.639 87.6025 105.918H86.2061C85.0244 105.918 82.0166 106.598 77.1826 107.959H76.9678C76.1442 107.708 74.5508 104.235 72.1875 97.5391C68.3561 89.8405 65.0439 82.5179 62.251 75.5713C62.0361 75.5713 61.8034 75.3564 61.5527 74.9268C59.7982 75.8219 57.4707 76.6455 54.5703 77.3975C53.9974 79.6891 52.7799 83.0013 50.918 87.334C50.918 90.0553 48.9665 92.168 45.0635 93.6719C38.5465 98.0762 35.1449 100.278 34.8584 100.278V100.493H35.2881C36.5055 99.6696 40.4443 97.9329 47.1045 95.2832C51.2223 93.0273 54.7673 91.4339 57.7393 90.5029H57.9541C57.6676 90.9326 54.266 93.2064 47.749 97.3242C47.3193 97.3242 45.6543 101.693 42.7539 110.43C40.3906 112.399 36.6309 114.064 31.4746 115.425C27.8939 116.463 22.9883 116.982 16.7578 116.982C11.2793 118.773 7.05404 120.742 4.08203 122.891C4.08203 122.747 4.01042 122.676 3.86719 122.676C7.34049 113.688 9.45312 107.959 10.2051 105.488C12.7832 104.092 18.8883 100.153 28.5205 93.6719H28.3057C26.8018 94.7103 22.1289 96.7513 14.2871 99.7949C5.29948 104.02 0.608724 106.133 0.214844 106.133H0L13.374 97.3242C13.6605 96.0352 15.1644 91.8099 17.8857 84.6484C17.8857 83.2161 19.318 81.8555 22.1826 80.5664L49.0918 62.8955H48.877C25.9603 73.029 11.7806 79.4564 6.33789 82.1777H5.9082V81.9092C6.08724 81.5869 8.95182 79.7786 14.502 76.4844C16.6862 74.6224 19.3896 72.8857 22.6123 71.2744C23.0778 70.8089 23.8477 68.6247 24.9219 64.7217L35.9863 35.2881L36.4697 33.7305H36.2012C26.4974 38.2064 21.0726 40.6234 19.9268 40.9814V40.7129L59.5117 14.9316H59.2969C57.8288 15.791 54.4271 17.2949 49.0918 19.4434C46.0124 21.2695 43.2373 22.5586 40.7666 23.3105C40.5876 23.0241 40.498 22.7913 40.498 22.6123C42.6465 15.988 44.3115 12.6758 45.4932 12.6758C46.1377 12.6758 57.8288 10.6348 80.5664 6.55273C81.2467 6.44531 84.2725 5.08464 89.6436 2.4707C92.0068 1.68294 93.8867 0.859375 95.2832 0ZM83.0371 17.4561V17.6709H83.7354C89.7152 15.7015 94.5492 13.5173 98.2373 11.1182C99.4189 10.2946 100.01 9.8291 100.01 9.72168H99.5801C98.4342 10.3304 95.7129 11.3151 91.416 12.6758C87.8711 15.0749 85.0781 16.6683 83.0371 17.4561ZM83.0371 26.4795V26.6943C86.7969 26.0498 93.6003 23.1852 103.447 18.1006C107.279 16.1312 109.391 14.7705 109.785 14.0186V13.8037L100.923 16.7578C94.4059 19.8372 88.7484 22.7734 83.9502 25.5664C83.3415 26.0319 83.0371 26.3363 83.0371 26.4795ZM71.2744 34.1602H70.415C69.1618 38.7077 67.7116 40.9814 66.0645 40.9814L56.8262 47.0508H57.2559C59.2611 45.7617 62.5016 44.2578 66.9775 42.5391L67.2461 43.0225C66.2077 44.8844 65.3662 47.0687 64.7217 49.5752H65.2051C70.3971 48.7516 74.0853 47.391 76.2695 45.4932C79.2773 43.0583 80.7812 40.3369 80.7812 37.3291C80.7812 35.2165 79.8861 34.1602 78.0957 34.1602C78.0957 33.8737 76.8783 33.6589 74.4434 33.5156C73.4766 33.9453 72.4202 34.1602 71.2744 34.1602ZM74.0137 56.3428H74.4434C75.7682 55.734 79.1699 54.4629 84.6484 52.5293C90.0553 49.5215 93.1527 47.6237 93.9404 46.8359H93.457C90.4492 47.6237 86.3851 49.2887 81.2646 51.8311C76.7887 54.1943 74.3717 55.6982 74.0137 56.3428ZM32.6025 59.082V59.2969H33.0322C33.9632 58.7956 36.5413 57.8825 40.7666 56.5576C46.6032 53.2633 49.5394 51.5446 49.5752 51.4014H49.0918C45.0814 52.2607 39.8893 54.5882 33.5156 58.3838C33.5156 58.8493 33.2113 59.082 32.6025 59.082ZM81.6943 58.5986C86.7074 56.9873 90.9326 55.1074 94.3701 52.959L94.8535 52.2607V52.0459C89.4466 53.8363 85.0602 55.8773 81.6943 58.1689V58.5986ZM30.3467 84.4336V84.6484H30.5615C37.4365 82.321 41.7334 80.2083 43.4521 78.3105V78.0957C38.2601 79.8145 33.8916 81.9271 30.3467 84.4336Z" fill="#FFF7F7"/>
</svg>
